<?xml version="1.0" encoding="UTF-8"?>
<svg xmlns="http://www.w3.org/2000/svg" width="1024" height="1024" viewBox="0 0 1024 1024" role="img" aria-label="ApexForge AI logo (vectorized)">
<g fill="#110f0f" fill-rule="evenodd">
  <path d="M 738.67 913.33 L 282.67 913.33 L 240.00 905.33 L 200.00 889.33 L 162.67 862.67 L 140.00 837.33 L 116.00 794.67 L 100.00 722.67 L 100.00 298.67 L 110.67 240.00 L 126.67 202.67 L 150.67 168.00 L 178.67 142.67 L 221.33 118.67 L 296.00 102.67 L 725.33 102.67 L 786.67 113.33 L 818.67 126.67 L 850.67 148.00 L 884.00 184.00 L 908.00 232.00 L 921.33 296.00 L 918.67 746.67 L 900.00 808.00 L 884.00 834.67 L 856.00 865.33 L 805.33 897.33 L 738.67 913.33 Z"/>
  <path d="M 441.33 645.33 L 446.67 640.00 L 446.67 610.67 L 425.33 608.00 L 442.67 606.67 L 449.33 597.33 L 450.67 582.67 L 452.00 602.67 L 457.33 605.33 L 462.67 573.33 L 456.00 569.33 L 450.67 580.00 L 444.00 565.33 L 453.33 548.00 L 454.67 562.67 L 458.67 566.67 L 465.33 562.67 L 478.67 533.33 L 473.33 522.67 L 481.33 517.33 L 484.00 504.00 L 461.33 494.67 L 448.00 478.67 L 429.33 492.00 L 389.33 492.00 L 370.67 484.00 L 373.33 494.67 L 350.67 496.00 L 361.33 512.00 L 360.00 518.67 L 348.00 501.33 L 338.67 492.00 L 334.67 493.33 L 348.00 525.33 L 341.33 534.67 L 318.67 482.67 L 313.33 442.67 L 309.33 441.33 L 305.33 448.00 L 301.33 468.00 L 280.00 436.00 L 246.67 434.67 L 298.67 412.00 L 305.33 402.67 L 266.67 409.33 L 241.33 400.00 L 258.67 404.00 L 290.67 401.33 L 300.00 392.00 L 298.67 374.67 L 337.33 421.33 L 353.33 450.67 L 384.00 478.67 L 405.33 486.67 L 437.33 484.00 L 446.67 466.67 L 448.00 444.00 L 452.00 477.33 L 464.00 489.33 L 485.33 494.67 L 497.33 477.33 L 497.33 448.00 L 502.67 432.00 L 524.00 402.67 L 508.00 400.00 L 521.33 389.33 L 524.00 376.00 L 470.67 349.33 L 465.33 330.67 L 465.33 301.33 L 478.67 269.33 L 478.67 245.33 L 458.67 217.33 L 432.00 209.33 L 386.67 214.67 L 366.67 232.00 L 369.33 280.00 L 358.67 301.33 L 369.33 309.33 L 366.67 314.67 L 376.00 345.33 L 389.33 348.00 L 430.67 338.67 L 417.33 349.33 L 413.33 374.67 L 397.33 353.33 L 394.67 364.00 L 362.67 369.33 L 352.00 358.67 L 320.00 348.00 L 296.00 350.67 L 280.00 358.67 L 261.33 348.00 L 240.00 348.00 L 222.67 360.00 L 218.67 372.00 L 213.33 372.00 L 222.67 352.00 L 222.67 338.67 L 228.00 338.67 L 233.33 312.00 L 256.00 273.33 L 274.67 276.00 L 277.33 281.33 L 285.33 276.00 L 296.00 289.33 L 312.00 289.33 L 321.33 274.67 L 313.33 248.00 L 306.67 241.33 L 248.00 244.00 L 228.00 258.67 L 166.67 333.33 L 148.00 376.00 L 148.00 394.67 L 221.33 441.33 L 237.33 446.67 L 266.67 446.67 L 277.33 441.33 L 300.00 501.33 L 342.67 554.67 L 345.33 602.67 L 365.33 620.00 L 397.33 636.00 L 401.33 629.33 L 393.33 610.67 L 396.00 592.00 L 388.00 581.33 L 390.67 565.33 L 382.67 554.67 L 392.00 556.00 L 398.67 549.33 L 401.33 538.67 L 397.33 532.00 L 413.33 529.33 L 398.67 562.67 L 402.67 569.33 L 412.00 570.67 L 404.00 573.33 L 398.67 584.00 L 410.67 604.00 L 422.67 605.33 L 406.67 608.00 L 406.67 624.00 L 416.00 641.33 L 441.33 645.33 Z"/>
  <path d="M 684.00 469.33 L 702.67 453.33 L 702.67 434.67 L 692.00 413.33 L 680.00 396.00 L 653.33 390.67 L 646.67 378.67 L 641.33 378.67 L 641.33 370.67 L 625.33 360.00 L 666.67 364.00 L 673.33 357.33 L 678.67 328.00 L 684.00 322.67 L 673.33 304.00 L 673.33 274.67 L 677.33 281.33 L 681.33 280.00 L 678.67 264.00 L 664.00 246.67 L 650.67 241.33 L 645.33 244.00 L 632.00 236.00 L 605.33 236.00 L 578.67 252.00 L 560.00 249.33 L 549.33 254.67 L 526.67 290.67 L 526.67 317.33 L 530.67 310.67 L 534.67 330.67 L 534.67 376.00 L 524.00 394.67 L 536.00 393.33 L 552.00 372.00 L 548.00 386.67 L 552.00 390.67 L 566.67 370.67 L 569.33 336.00 L 553.33 277.33 L 568.00 262.67 L 564.00 298.67 L 574.67 320.00 L 593.33 338.67 L 596.00 349.33 L 590.67 378.67 L 572.00 400.00 L 596.00 434.67 L 618.67 457.33 L 653.33 470.67 L 669.33 470.67 L 669.33 462.67 L 677.33 470.67 L 684.00 469.33 Z"/>
  <path d="M 721.33 440.00 L 733.33 409.33 L 738.67 417.33 L 752.00 417.33 L 781.33 406.67 L 764.00 418.67 L 765.33 425.33 L 749.33 428.00 L 748.00 432.00 L 789.33 430.67 L 824.00 414.67 L 869.33 385.33 L 878.67 373.33 L 878.67 365.33 L 854.67 320.00 L 786.67 246.67 L 730.67 238.67 L 716.00 253.33 L 713.33 277.33 L 718.67 280.00 L 720.00 289.33 L 733.33 289.33 L 746.67 276.00 L 760.00 278.67 L 774.67 274.67 L 793.33 296.00 L 817.33 354.67 L 816.00 358.67 L 805.33 353.33 L 778.67 356.00 L 752.00 374.67 L 720.00 372.00 L 688.00 388.00 L 686.67 397.33 L 694.67 410.67 L 716.00 440.00 L 721.33 440.00 Z"/>
  <path d="M 318.67 829.33 L 360.00 828.00 L 421.33 817.33 L 522.67 782.67 L 658.67 710.67 L 760.00 636.00 L 849.33 544.00 L 876.00 506.67 L 900.00 461.33 L 916.00 402.67 L 916.00 373.33 L 900.00 333.33 L 877.33 310.67 L 852.00 298.67 L 884.00 325.33 L 897.33 349.33 L 897.33 402.67 L 889.33 426.67 L 857.33 482.67 L 817.33 530.67 L 762.67 582.67 L 709.33 625.33 L 621.33 684.00 L 480.00 758.67 L 421.33 782.67 L 322.67 812.00 L 233.33 818.67 L 274.67 828.00 L 318.67 829.33 Z"/>
  <path d="M 461.33 396.00 L 449.33 394.67 L 492.00 386.67 L 461.33 396.00 Z"/>
  <path d="M 486.67 672.00 L 505.33 664.00 L 505.33 642.67 L 521.33 562.67 L 540.00 541.33 L 553.33 512.00 L 552.00 502.67 L 537.33 533.33 L 513.33 562.67 L 509.33 577.33 L 508.00 565.33 L 534.67 528.00 L 553.33 482.67 L 553.33 469.33 L 542.67 466.67 L 554.67 457.33 L 578.67 484.00 L 582.67 480.00 L 585.33 442.67 L 580.00 424.00 L 565.33 401.33 L 533.33 406.67 L 516.00 424.00 L 508.00 442.67 L 505.33 480.00 L 489.33 506.67 L 484.00 544.00 L 470.67 568.00 L 470.67 640.00 L 476.00 672.00 L 486.67 672.00 Z"/>
  <path d="M 721.33 546.67 L 726.67 525.33 L 737.33 514.67 L 745.33 493.33 L 734.67 464.00 L 738.67 436.00 L 726.67 448.00 L 737.33 480.00 L 737.33 496.00 L 732.00 509.33 L 710.67 522.67 L 718.67 528.00 L 721.33 546.67 Z"/>
  <path d="M 289.33 794.67 L 352.00 782.67 L 424.00 758.67 L 498.67 726.67 L 594.67 676.00 L 693.33 612.00 L 754.67 564.00 L 820.00 498.67 L 841.33 469.33 L 738.67 561.33 L 616.00 638.67 L 498.67 689.33 L 384.00 716.00 L 306.67 716.00 L 280.00 710.67 L 240.00 694.67 L 206.67 666.67 L 190.67 637.33 L 188.00 594.67 L 209.33 544.00 L 241.33 506.67 L 234.67 508.00 L 182.67 554.67 L 145.33 605.33 L 121.33 666.67 L 121.33 714.67 L 134.67 746.67 L 160.00 772.00 L 189.33 788.00 L 221.33 796.00 L 289.33 794.67 Z"/>
  <path d="M 638.67 528.00 L 657.33 520.00 L 626.67 521.33 L 593.33 506.67 L 616.00 526.67 L 638.67 528.00 Z"/>
  <path d="M 230.67 653.33 L 217.33 629.33 L 217.33 594.67 L 230.67 554.67 L 250.67 518.67 L 222.67 552.00 L 209.33 578.67 L 204.00 602.67 L 206.67 626.67 L 214.67 642.67 L 226.67 654.67 L 230.67 653.33 Z"/>
  <path d="M 556.00 648.00 L 565.33 644.00 L 581.33 622.67 L 600.00 630.67 L 661.33 598.67 L 669.33 588.00 L 682.67 585.33 L 708.00 568.00 L 713.33 549.33 L 704.00 542.67 L 669.33 540.00 L 616.00 556.00 L 592.00 529.33 L 573.33 524.00 L 606.67 584.00 L 597.33 577.33 L 593.33 581.33 L 593.33 589.33 L 577.33 616.00 L 548.00 648.00 L 556.00 648.00 Z"/>
  <path d="M 324.00 680.00 L 329.33 664.00 L 344.00 649.33 L 364.00 645.33 L 348.00 637.33 L 352.00 625.33 L 374.67 634.67 L 344.00 609.33 L 321.33 658.67 L 318.67 680.00 L 324.00 680.00 Z"/>
  <path d="M 462.67 826.67 L 536.00 806.67 L 637.33 758.67 L 725.33 697.33 L 782.67 640.00 L 709.33 700.00 L 629.33 750.67 L 528.00 801.33 L 454.67 826.67 L 462.67 826.67 Z"/>
</g>
<g fill="#e41f18" fill-rule="evenodd">
  <path d="M 226.67 652.00 L 217.33 645.33 L 206.67 624.00 L 206.67 589.33 L 220.00 557.33 L 242.67 529.33 L 217.33 592.00 L 217.33 632.00 L 226.67 652.00 Z"/>
  <path d="M 282.67 796.00 L 224.00 796.00 L 184.00 785.33 L 160.00 772.00 L 132.00 741.33 L 121.33 712.00 L 121.33 672.00 L 134.67 626.67 L 160.00 585.33 L 160.00 598.67 L 180.00 578.67 L 169.33 605.33 L 166.67 632.00 L 184.00 652.00 L 186.67 649.33 L 196.00 656.00 L 188.00 642.67 L 189.33 630.67 L 198.67 656.00 L 226.67 686.67 L 261.33 705.33 L 304.00 716.00 L 360.00 718.67 L 421.33 710.67 L 485.33 694.67 L 530.67 676.00 L 537.33 677.33 L 532.00 685.33 L 538.67 689.33 L 626.67 646.67 L 636.00 648.00 L 565.33 692.00 L 456.00 745.33 L 360.00 780.00 L 282.67 796.00 Z"/>
  <path d="M 736.00 686.67 L 732.00 682.67 L 770.67 649.33 L 772.00 653.33 L 736.00 686.67 Z"/>
  <path d="M 357.33 828.00 L 280.00 828.00 L 233.33 818.67 L 309.33 814.67 L 416.00 785.33 L 552.00 724.00 L 669.33 652.00 L 673.33 653.33 L 669.33 662.67 L 690.67 670.67 L 721.33 664.00 L 640.00 721.33 L 533.33 777.33 L 448.00 809.33 L 357.33 828.00 Z"/>
  <path d="M 482.67 822.67 L 473.33 821.33 L 552.00 790.67 L 653.33 737.33 L 714.67 694.67 L 720.00 692.00 L 724.00 696.00 L 674.67 734.67 L 626.67 764.00 L 568.00 793.33 L 482.67 822.67 Z"/>
</g>
<g fill="#564846" fill-rule="evenodd">
  <path d="M 98.67 598.67 L 98.67 548.00 L 98.67 598.67 Z"/>
  <path d="M 717.33 916.00 L 302.67 914.67 L 717.33 916.00 Z"/>
</g>
<g fill="#f98411" fill-rule="evenodd">
  <path d="M 704.00 670.67 L 690.67 670.67 L 668.00 658.67 L 768.00 580.00 L 833.33 514.67 L 876.00 456.00 L 894.67 416.00 L 902.67 381.33 L 900.00 352.00 L 888.00 324.00 L 910.67 360.00 L 913.33 410.67 L 902.67 450.67 L 884.00 490.67 L 824.00 572.00 L 746.67 644.00 L 704.00 670.67 Z"/>
  <path d="M 538.67 689.33 L 532.00 685.33 L 533.33 678.67 L 600.00 649.33 L 682.67 601.33 L 744.00 558.67 L 820.00 493.33 L 770.67 548.00 L 674.67 622.67 L 634.67 646.67 L 626.67 646.67 L 538.67 689.33 Z"/>
  <path d="M 192.00 654.67 L 186.67 649.33 L 184.00 652.00 L 166.67 632.00 L 169.33 605.33 L 182.67 576.00 L 160.00 598.67 L 158.67 594.67 L 182.67 557.33 L 226.67 516.00 L 228.00 520.00 L 201.33 554.67 L 185.33 597.33 L 185.33 629.33 L 192.00 654.67 Z"/>
</g>
<g fill="#9e9e9e" fill-rule="evenodd">
  <path d="M 720.00 102.67 L 300.00 101.33 L 720.00 102.67 Z"/>
  <path d="M 98.67 548.00 L 98.67 300.00 L 98.67 548.00 Z"/>
  <path d="M 922.67 718.67 L 922.67 300.00 L 922.67 718.67 Z"/>
</g>
<g fill="#fdfdfd" fill-rule="evenodd">
  <path d="M 485.33 492.00 L 469.33 489.33 L 454.67 477.33 L 452.00 445.33 L 442.67 425.33 L 444.00 469.33 L 437.33 481.33 L 405.33 484.00 L 384.00 476.00 L 356.00 450.67 L 342.67 424.00 L 324.00 405.33 L 316.00 389.33 L 290.67 366.67 L 286.67 368.00 L 297.33 381.33 L 297.33 392.00 L 282.67 401.33 L 258.67 401.33 L 222.67 386.67 L 256.00 409.33 L 293.33 409.33 L 238.67 434.67 L 276.00 440.00 L 237.33 444.00 L 221.33 438.67 L 150.67 394.67 L 148.00 384.00 L 156.00 360.00 L 180.00 317.33 L 237.33 252.00 L 264.00 244.00 L 301.33 241.33 L 310.67 248.00 L 318.67 274.67 L 306.67 278.67 L 304.00 260.00 L 305.33 274.67 L 301.33 278.67 L 286.67 274.67 L 294.67 272.00 L 293.33 265.33 L 274.67 276.00 L 250.67 265.33 L 254.67 272.00 L 222.67 312.00 L 217.33 360.00 L 194.67 380.00 L 216.00 377.33 L 225.33 360.00 L 240.00 350.67 L 261.33 350.67 L 280.00 361.33 L 293.33 353.33 L 322.67 350.67 L 352.00 361.33 L 370.67 380.00 L 418.67 393.33 L 437.33 412.00 L 456.00 396.00 L 472.00 396.00 L 512.00 382.67 L 493.33 380.00 L 445.33 393.33 L 445.33 348.00 L 438.67 392.00 L 432.00 396.00 L 414.67 365.33 L 420.00 360.00 L 420.00 349.33 L 433.33 338.67 L 437.33 324.00 L 429.33 334.67 L 405.33 342.67 L 381.33 345.33 L 374.67 341.33 L 369.33 306.67 L 361.33 301.33 L 372.00 280.00 L 369.33 232.00 L 381.33 220.00 L 405.33 212.00 L 453.33 217.33 L 468.00 229.33 L 476.00 245.33 L 476.00 269.33 L 462.67 301.33 L 468.00 349.33 L 477.33 358.67 L 521.33 378.67 L 508.00 392.00 L 516.00 392.00 L 502.67 400.00 L 518.67 405.33 L 500.00 432.00 L 494.67 477.33 L 485.33 492.00 Z"/>
  <path d="M 682.67 468.00 L 661.33 452.00 L 657.33 453.33 L 664.00 468.00 L 640.00 465.33 L 618.67 454.67 L 574.67 400.00 L 593.33 378.67 L 596.00 338.67 L 569.33 306.67 L 566.67 277.33 L 580.00 253.33 L 602.67 238.67 L 634.67 238.67 L 645.33 246.67 L 658.67 246.67 L 676.00 264.00 L 674.67 268.00 L 665.33 264.00 L 673.33 288.00 L 670.67 304.00 L 681.33 317.33 L 670.67 357.33 L 666.67 361.33 L 648.00 361.33 L 614.67 352.00 L 638.67 370.67 L 645.33 414.67 L 676.00 400.00 L 648.00 404.00 L 645.33 382.67 L 653.33 393.33 L 677.33 396.00 L 689.33 413.33 L 700.00 434.67 L 700.00 453.33 L 682.67 468.00 Z"/>
  <path d="M 720.00 438.67 L 689.33 397.33 L 698.67 382.67 L 717.33 374.67 L 749.33 374.67 L 749.33 380.00 L 768.00 364.00 L 786.67 356.00 L 805.33 356.00 L 829.33 372.00 L 841.33 370.67 L 820.00 357.33 L 814.67 346.67 L 814.67 317.33 L 804.00 298.67 L 800.00 294.67 L 796.00 298.67 L 778.67 268.00 L 762.67 276.00 L 738.67 268.00 L 737.33 272.00 L 745.33 274.67 L 733.33 278.67 L 728.00 262.67 L 726.67 277.33 L 721.33 277.33 L 720.00 265.33 L 716.00 274.67 L 718.67 253.33 L 730.67 241.33 L 786.67 249.33 L 857.33 328.00 L 876.00 373.33 L 869.33 382.67 L 810.67 420.00 L 778.67 430.67 L 756.00 429.33 L 778.67 422.67 L 769.33 418.67 L 794.67 404.00 L 812.00 384.00 L 784.00 404.00 L 754.67 414.67 L 737.33 410.67 L 744.00 388.00 L 726.67 416.00 L 720.00 438.67 Z"/>
  <path d="M 536.00 390.67 L 532.00 386.67 L 537.33 376.00 L 537.33 288.00 L 530.67 300.00 L 529.33 290.67 L 549.33 257.33 L 557.33 252.00 L 573.33 252.00 L 553.33 272.00 L 548.00 285.33 L 548.00 304.00 L 552.00 289.33 L 566.67 333.33 L 566.67 365.33 L 557.33 380.00 L 554.67 345.33 L 550.67 370.67 L 536.00 390.67 Z"/>
  <path d="M 418.67 388.00 L 366.67 370.67 L 389.33 364.00 L 400.00 377.33 L 400.00 358.67 L 418.67 388.00 Z"/>
  <path d="M 198.67 400.00 L 174.67 389.33 L 168.00 366.67 L 166.67 389.33 L 181.33 401.33 L 198.67 400.00 Z"/>
  <path d="M 633.33 413.33 L 620.00 402.67 L 602.67 372.00 L 606.67 394.67 L 614.67 405.33 L 585.33 408.00 L 633.33 413.33 Z"/>
  <path d="M 485.33 670.67 L 478.67 669.33 L 473.33 642.67 L 470.67 578.67 L 478.67 554.67 L 482.67 556.00 L 486.67 546.67 L 492.00 506.67 L 508.00 480.00 L 510.67 442.67 L 518.67 424.00 L 533.33 409.33 L 565.33 404.00 L 580.00 429.33 L 582.67 469.33 L 578.67 478.67 L 558.67 461.33 L 561.33 453.33 L 557.33 452.00 L 534.67 472.00 L 549.33 470.67 L 550.67 482.67 L 521.33 544.00 L 509.33 558.67 L 508.00 552.00 L 502.67 552.00 L 506.67 601.33 L 510.67 576.00 L 518.67 562.67 L 516.00 594.67 L 505.33 629.33 L 502.67 664.00 L 485.33 670.67 Z"/>
  <path d="M 236.00 424.00 L 246.67 418.67 L 208.00 420.00 L 193.33 416.00 L 213.33 425.33 L 236.00 424.00 Z"/>
  <path d="M 397.33 633.33 L 365.33 617.33 L 348.00 602.67 L 345.33 554.67 L 302.67 501.33 L 286.67 469.33 L 282.67 444.00 L 304.00 476.00 L 308.00 448.00 L 313.33 450.67 L 313.33 469.33 L 324.00 506.67 L 349.33 548.00 L 345.33 530.67 L 358.67 533.33 L 342.67 514.67 L 338.67 494.67 L 362.67 524.00 L 369.33 514.67 L 353.33 498.67 L 378.67 497.33 L 376.00 489.33 L 389.33 494.67 L 429.33 494.67 L 448.00 484.00 L 461.33 497.33 L 481.33 504.00 L 477.33 518.67 L 461.33 516.00 L 453.33 502.67 L 448.00 513.33 L 424.00 518.67 L 408.00 529.33 L 397.33 529.33 L 385.33 517.33 L 398.67 544.00 L 392.00 553.33 L 386.67 553.33 L 378.67 542.67 L 374.67 546.67 L 388.00 565.33 L 388.00 573.33 L 380.00 573.33 L 393.33 592.00 L 390.67 608.00 L 397.33 633.33 Z"/>
  <path d="M 461.33 564.00 L 454.67 560.00 L 456.00 518.67 L 476.00 528.00 L 461.33 564.00 Z"/>
  <path d="M 410.67 566.67 L 401.33 562.67 L 412.00 536.00 L 432.00 524.00 L 448.00 521.33 L 452.00 528.00 L 449.33 557.33 L 442.67 564.00 L 410.67 566.67 Z"/>
  <path d="M 600.00 628.00 L 584.00 620.00 L 572.00 626.67 L 588.00 605.33 L 597.33 582.67 L 606.67 589.33 L 614.67 605.33 L 614.67 592.00 L 598.67 570.67 L 578.67 526.67 L 592.00 532.00 L 613.33 558.67 L 664.00 542.67 L 693.33 542.67 L 710.67 549.33 L 708.00 562.67 L 672.00 588.00 L 674.67 548.00 L 668.00 565.33 L 652.00 578.67 L 653.33 582.67 L 664.00 574.67 L 665.33 592.00 L 600.00 628.00 Z"/>
  <path d="M 382.67 605.33 L 372.00 578.67 L 360.00 566.67 L 369.33 589.33 L 382.67 605.33 Z"/>
  <path d="M 442.67 604.00 L 410.67 601.33 L 401.33 578.67 L 421.33 569.33 L 442.67 569.33 L 449.33 578.67 L 442.67 604.00 Z"/>
  <path d="M 440.00 644.00 L 421.33 641.33 L 414.67 634.67 L 406.67 613.33 L 410.67 609.33 L 440.00 609.33 L 444.00 613.33 L 446.67 621.33 L 440.00 644.00 Z"/>
  <path d="M 322.67 676.00 L 324.00 658.67 L 344.00 612.00 L 353.33 621.33 L 348.00 624.00 L 342.67 640.00 L 358.67 645.33 L 341.33 649.33 L 322.67 676.00 Z"/>
</g>
</svg>